<svg xmlns="http://www.w3.org/2000/svg"  viewBox="0 0 100 100" width="150px" height="150px"><path fill="#f1bc19" d="M78 13A1 1 0 1 0 78 15A1 1 0 1 0 78 13Z"/><path fill="#f9dbd2" d="M50 12A38 38 0 1 0 50 88A38 38 0 1 0 50 12Z"/><path fill="#f1bc19" d="M84 12A4 4 0 1 0 84 20A4 4 0 1 0 84 12Z"/><path fill="#ee3e54" d="M14 24A2 2 0 1 0 14 28A2 2 0 1 0 14 24Z"/><path fill="#fbcd59" d="M78 75A2 2 0 1 0 78 79 2 2 0 1 0 78 75zM17 74A4 4 0 1 0 17 82 4 4 0 1 0 17 74z"/><path fill="#ee3e54" d="M24 81A2 2 0 1 0 24 85A2 2 0 1 0 24 81Z"/><path fill="#fff" d="M66.483 76.03399999999999A2.483 2.483 0 1 0 66.483 81 2.483 2.483 0 1 0 66.483 76.03399999999999zM16 47A1 1 0 1 0 16 49 1 1 0 1 0 16 47z"/><path fill="#f1bc19" d="M86 30A1 1 0 1 0 86 32A1 1 0 1 0 86 30Z"/><path fill="#fff" d="M80 64A2 2 0 1 0 80 68A2 2 0 1 0 80 64Z"/><path fill="#472b29" d="M26.175 43.625L26.175 66.5 27.575 66.5 27.575 43.625"/><path fill="#97aec7" d="M20.229 42.543L51.041 28.472 81.854 42.539 51.041 56.611z"/><path fill="#472b29" d="M51.041,29.24l29.128,13.3L51.041,55.842L21.913,42.543L51.041,29.24 M51.041,27.701L18.543,42.543 l32.498,14.838l32.498-14.842L51.041,27.701z"/><path fill="#b0c1d4" d="M33.7,58.571V44.496l0.065-0.16c0.766-1.879,7.573-3.907,17.234-3.907s16.469,2.028,17.234,3.907 l0.065,0.16v14.075H33.7z"/><path fill="#472b29" d="M51,41.129c10.102,0,16.078,2.226,16.586,3.471l0.014,0.034v13.237H34.4V44.634l0.014-0.034 C34.922,43.354,40.898,41.129,51,41.129 M51,39.729c-9.265,0-16.887,1.9-17.883,4.343H33v15.2h36v-15.2h-0.117 C67.887,41.629,60.265,39.729,51,39.729z"/><path fill="#66798f" d="M51 55.572A17.3 4.364 0 1 0 51 64.3A17.3 4.364 0 1 0 51 55.572Z"/><path fill="#472b29" d="M51,56.271c10.783,0,16.6,2.601,16.6,3.664S61.783,63.6,51,63.6s-16.6-2.601-16.6-3.664 S40.217,56.271,51,56.271 M51,54.871c-9.941,0-18,2.268-18,5.064S41.059,65,51,65s18-2.268,18-5.064S60.941,54.871,51,54.871z"/><path fill="#ecad6f" d="M24.462,68.347l-0.414-0.904C23.817,66.972,23.7,66.486,23.7,66c0-1.819,1.48-3.3,3.3-3.3 s3.3,1.48,3.3,3.3c0,0.673-0.205,1.323-0.595,1.882l-0.03,0.043l-2.71,5.493L24.462,68.347z"/><path fill="#472b29" d="M27 63.4c1.434 0 2.6 1.166 2.6 2.6 0 .529-.162 1.041-.469 1.481l-.061.087-.047.095-2.059 4.173-1.326-2.686h.025l-.987-2.017C24.493 66.76 24.4 66.378 24.4 66 24.4 64.566 25.566 63.4 27 63.4M27 62c-2.209 0-4 1.791-4 4 0 .631.159 1.22.419 1.75h-.032L26.965 75l3.314-6.718C30.73 67.635 31 66.85 31 66 31 63.791 29.209 62 27 62zM59.916 53.572c1.866.354 3.685.821 5.426 1.402.262.087.545-.054.633-.316.087-.262-.054-.545-.316-.633-1.787-.597-3.649-1.075-5.557-1.436-.271-.051-.533.127-.584.398C59.466 53.259 59.644 53.521 59.916 53.572L59.916 53.572zM54.388 52.866c.996.069 1.986.167 2.968.297.274.036.525-.156.561-.43.036-.274-.156-.525-.43-.561-1.003-.132-2.014-.233-3.03-.303-.276-.019-.514.189-.533.464C53.905 52.608 54.113 52.847 54.388 52.866L54.388 52.866zM36.658 54.974c4.445-1.48 9.398-2.225 14.351-2.225.231 0 .462.002.693.005.276.004.503-.216.507-.492.004-.276-.216-.503-.492-.507-.236-.004-.472-.005-.708-.005-5.053 0-10.106.757-14.667 2.276-.262.087-.404.37-.316.632C36.113 54.92 36.396 55.062 36.658 54.974L36.658 54.974z"/></svg>