<?xml version="1.0" encoding="iso-8859-1"?><!-- Generator: Adobe Illustrator 22.1.0, SVG Export Plug-In . SVG Version: 6.00 Build 0)  --><svg xmlns="http://www.w3.org/2000/svg" xmlns:xlink="http://www.w3.org/1999/xlink" viewBox="0 0 100 100" width="100px" height="100px"><g><circle style="fill:#F1BC19;" cx="78" cy="14" r="1"/><circle style="fill:#F9DBD2;" cx="50" cy="50" r="38"/><circle style="fill:#F1BC19;" cx="84" cy="16" r="4"/><circle style="fill:#EE3E54;" cx="14" cy="26" r="2"/><circle style="fill:#FBCD59;" cx="78" cy="77" r="2"/><circle style="fill:#FBCD59;" cx="17" cy="78" r="4"/><circle style="fill:#EE3E54;" cx="24" cy="83" r="2"/><circle style="fill:#FFFFFF;" cx="66.483" cy="78.517" r="2.483"/><circle style="fill:#FFFFFF;" cx="16" cy="48" r="1"/><circle style="fill:#F1BC19;" cx="86" cy="31" r="1"/><circle style="fill:#FFFFFF;" cx="80" cy="66" r="2"/><polyline style="fill:#472B29;" points="26.175,43.625 26.175,66.5 27.575,66.5 27.575,43.625  "/><polygon style="fill:#97AEC7;" points="20.229,42.543 51.041,28.472 81.854,42.539 51.041,56.611  "/><path style="fill:#472B29;" d="M51.041,29.24l29.128,13.3L51.041,55.842L21.913,42.543L51.041,29.24 M51.041,27.701L18.543,42.543   l32.498,14.838l32.498-14.842L51.041,27.701z"/><path style="fill:#B0C1D4;" d="M33.7,58.571V44.496l0.065-0.16c0.766-1.879,7.573-3.907,17.234-3.907s16.469,2.028,17.234,3.907   l0.065,0.16v14.075H33.7z"/><path style="fill:#472B29;" d="M51,41.129c10.102,0,16.078,2.226,16.586,3.471l0.014,0.034v13.237H34.4V44.634l0.014-0.034   C34.922,43.354,40.898,41.129,51,41.129 M51,39.729c-9.265,0-16.887,1.9-17.883,4.343H33v15.2h36v-15.2h-0.117   C67.887,41.629,60.265,39.729,51,39.729z"/><ellipse style="fill:#66798F;" cx="51" cy="59.936" rx="17.3" ry="4.364"/><path style="fill:#472B29;" d="M51,56.271c10.783,0,16.6,2.601,16.6,3.664S61.783,63.6,51,63.6s-16.6-2.601-16.6-3.664   S40.217,56.271,51,56.271 M51,54.871c-9.941,0-18,2.268-18,5.064S41.059,65,51,65s18-2.268,18-5.064S60.941,54.871,51,54.871z"/><path style="fill:#ECAD6F;" d="M24.462,68.347l-0.414-0.904C23.817,66.972,23.7,66.486,23.7,66c0-1.819,1.48-3.3,3.3-3.3   s3.3,1.48,3.3,3.3c0,0.673-0.205,1.323-0.595,1.882l-0.03,0.043l-2.71,5.493L24.462,68.347z"/><path style="fill:#472B29;" d="M27,63.4c1.434,0,2.6,1.166,2.6,2.6c0,0.529-0.162,1.041-0.469,1.481l-0.061,0.087l-0.047,0.095   l-2.059,4.173l-1.326-2.686h0.025l-0.987-2.017C24.493,66.76,24.4,66.378,24.4,66C24.4,64.566,25.566,63.4,27,63.4 M27,62   c-2.209,0-4,1.791-4,4c0,0.631,0.159,1.22,0.419,1.75h-0.032L26.965,75l3.314-6.718C30.73,67.635,31,66.85,31,66   C31,63.791,29.209,62,27,62z"/><path style="fill:#472B29;" d="M59.916,53.572c1.866,0.354,3.685,0.821,5.426,1.402c0.262,0.087,0.545-0.054,0.633-0.316   c0.087-0.262-0.054-0.545-0.316-0.633c-1.787-0.597-3.649-1.075-5.557-1.436c-0.271-0.051-0.533,0.127-0.584,0.398   C59.466,53.259,59.644,53.521,59.916,53.572L59.916,53.572z"/><path style="fill:#472B29;" d="M54.388,52.866c0.996,0.069,1.986,0.167,2.968,0.297c0.274,0.036,0.525-0.156,0.561-0.43   c0.036-0.274-0.156-0.525-0.43-0.561c-1.003-0.132-2.014-0.233-3.03-0.303c-0.276-0.019-0.514,0.189-0.533,0.464   C53.905,52.608,54.113,52.847,54.388,52.866L54.388,52.866z"/><path style="fill:#472B29;" d="M36.658,54.974c4.445-1.48,9.398-2.225,14.351-2.225c0.231,0,0.462,0.002,0.693,0.005   c0.276,0.004,0.503-0.216,0.507-0.492c0.004-0.276-0.216-0.503-0.492-0.507c-0.236-0.004-0.472-0.005-0.708-0.005   c-5.053,0-10.106,0.757-14.667,2.276c-0.262,0.087-0.404,0.37-0.316,0.632C36.113,54.92,36.396,55.062,36.658,54.974L36.658,54.974   z"/></g></svg>