<?xml version="1.0" encoding="iso-8859-1"?><!-- Generator: Adobe Illustrator 22.1.0, SVG Export Plug-In . SVG Version: 6.00 Build 0)  --><svg xmlns="http://www.w3.org/2000/svg" xmlns:xlink="http://www.w3.org/1999/xlink" viewBox="0 0 100 100" width="100px" height="100px"><g><g><g><g><circle style="fill:#F1BC19;" cx="77" cy="13" r="1"/></g><g><circle style="fill:#E4E4F9;" cx="50" cy="50" r="37"/></g><g><circle style="fill:#F1BC19;" cx="83" cy="15" r="4"/></g><g><circle style="fill:#8889B9;" cx="87" cy="24" r="2"/></g><g><circle style="fill:#FBCD59;" cx="81" cy="76" r="2"/></g><g><circle style="fill:#FBCD59;" cx="15" cy="63" r="4"/></g><g><circle style="fill:#8889B9;" cx="25" cy="87" r="2"/></g><g><circle style="fill:#FFFFFF;" cx="18.5" cy="51.5" r="2.5"/></g><g><circle style="fill:#FFFFFF;" cx="79.5" cy="33.5" r="1.5"/></g></g></g></g><g><g><path style="fill:#84A7D7;" d="M49.982,73.479c-1.139,0-2.225-0.428-3.058-1.205c-0.777-0.728-1.759-1.128-2.764-1.128H27.832    c-0.624,0-1.132-0.501-1.132-1.117V41.231c0-0.616,0.508-1.118,1.132-1.118h44.303c0.624,0,1.132,0.502,1.132,1.118v28.797    c0,0.616-0.508,1.117-1.132,1.117h-16.33c-1.004,0-1.985,0.4-2.766,1.128C52.208,73.052,51.122,73.479,49.982,73.479z"/></g><g><path style="fill:#472B29;" d="M72.135,40.813c0.238,0,0.432,0.188,0.432,0.418v28.797c0,0.23-0.194,0.418-0.432,0.418h-16.33    c-1.181,0-2.333,0.467-3.244,1.317c-0.701,0.656-1.616,1.017-2.577,1.017c-0.961,0-1.877-0.361-2.58-1.018    c-0.909-0.848-2.06-1.315-3.242-1.315H27.832c-0.238,0-0.432-0.188-0.432-0.418V41.231c0-0.23,0.194-0.418,0.432-0.418H72.135     M72.135,39.413H27.832c-1.011,0-1.832,0.815-1.832,1.818v28.798c0,1.003,0.821,1.818,1.832,1.818h16.329    c0.826,0,1.639,0.334,2.287,0.939c0.962,0.899,2.218,1.394,3.535,1.394c1.317,0,2.573-0.495,3.534-1.395    c0.649-0.605,1.461-0.939,2.288-0.939h16.33c1.011,0,1.832-0.815,1.832-1.818V41.231C73.967,40.228,73.145,39.413,72.135,39.413    L72.135,39.413z"/></g></g><g><g><circle style="fill:#472B29;" cx="50.167" cy="69.047" r="3.5"/></g></g><g><g><path style="fill:#FFFEF4;" d="M29.841,68.3V41.418l1.556-4.003c0.195-0.504,0.672-0.829,1.215-0.829    c6.885,0.015,12.941,1.256,16.614,3.408l0.322,0.191h1.203l0.303-0.161c3.951-2.061,10.149-3.342,16.578-3.424    c0.607,0,1.127,0.35,1.346,0.912l1.516,3.905V68.3H29.841z"/></g><g><path style="fill:#472B29;" d="M32.61,37.286c6.766,0.014,12.693,1.221,16.262,3.313l0.162,0.095l0.327,0.191h0.379h0.836h0.345    l0.305-0.16l0.148-0.078c3.863-2.015,9.943-3.267,16.248-3.347c0.326,0,0.589,0.174,0.702,0.466l1.469,3.784V67.6H30.541V41.55    l1.508-3.882C32.14,37.433,32.355,37.287,32.61,37.286 M32.612,35.886c-0.834,0-1.567,0.5-1.868,1.275l-1.603,4.126V69h42.053    V41.288l-1.564-4.028c-0.321-0.827-1.099-1.359-2.007-1.359c-6.534,0.083-12.849,1.395-16.896,3.506l-0.15,0.079h-0.836    l-0.162-0.095C45.803,37.177,39.62,35.9,32.612,35.886L32.612,35.886z"/></g></g><g><g><polygon style="fill:#BEBACB;" points="67.821,63.358 50.029,64.498 32.179,63.358 30.312,67.563 69.687,67.563   "/></g></g><g><g><path style="fill:#472B29;" d="M52.94,42.771c-0.098,0-0.191-0.058-0.23-0.154c-0.054-0.127,0.007-0.273,0.135-0.326    c3.895-1.615,7.971-2.316,12.128-2.1c0.138,0.008,0.243,0.126,0.236,0.264c-0.008,0.137-0.097,0.249-0.264,0.236    c-4.083-0.215-8.086,0.475-11.909,2.061C53.005,42.766,52.973,42.771,52.94,42.771z"/></g></g><g><g><path style="fill:#472B29;" d="M64.959,44.39c-0.004,0-0.009,0-0.014,0c-0.877-0.049-1.765-0.055-2.637-0.017    c-0.004,0-0.008,0-0.011,0c-0.134,0-0.244-0.105-0.25-0.239c-0.006-0.138,0.102-0.255,0.239-0.261    c0.891-0.037,1.793-0.031,2.686,0.017c0.138,0.008,0.243,0.126,0.236,0.264C65.201,44.286,65.091,44.39,64.959,44.39z"/></g></g><g><g><path style="fill:#472B29;" d="M57.89,44.928c-0.116,0-0.22-0.081-0.244-0.198c-0.029-0.135,0.058-0.268,0.192-0.296    c0.654-0.139,1.327-0.255,1.999-0.345c0.145-0.01,0.264,0.078,0.281,0.215s-0.078,0.263-0.215,0.281    c-0.66,0.088-1.32,0.201-1.962,0.337C57.924,44.926,57.906,44.928,57.89,44.928z"/></g></g><g><g><path style="fill:#472B29;" d="M52.94,46.47c-0.098,0-0.191-0.058-0.23-0.154c-0.054-0.127,0.007-0.273,0.135-0.326    c1.141-0.474,2.31-0.874,3.476-1.19c0.134-0.037,0.271,0.044,0.307,0.176c0.036,0.133-0.043,0.271-0.176,0.307    c-1.146,0.311-2.294,0.704-3.415,1.169C53.005,46.464,52.973,46.47,52.94,46.47z"/></g></g><g><g><path style="fill:#472B29;" d="M52.94,50.168c-0.098,0-0.191-0.058-0.23-0.154c-0.054-0.127,0.007-0.273,0.135-0.326    c3.894-1.617,7.978-2.319,12.128-2.101c0.138,0.008,0.243,0.125,0.236,0.264c-0.008,0.137-0.097,0.252-0.264,0.236    c-4.076-0.224-8.085,0.476-11.909,2.062C53.005,50.162,52.973,50.168,52.94,50.168z"/></g></g><g><g><path style="fill:#472B29;" d="M57.229,52.472c-0.113,0-0.216-0.077-0.243-0.192c-0.032-0.135,0.051-0.269,0.186-0.301    c2.535-0.601,5.161-0.831,7.802-0.693c0.138,0.008,0.243,0.125,0.236,0.264c-0.008,0.137-0.097,0.253-0.264,0.236    c-2.597-0.142-5.172,0.089-7.659,0.68C57.267,52.47,57.247,52.472,57.229,52.472z"/></g></g><g><g><path style="fill:#472B29;" d="M52.94,53.865c-0.098,0-0.191-0.058-0.231-0.154c-0.053-0.128,0.008-0.273,0.136-0.327    c0.731-0.303,1.477-0.577,2.215-0.815c0.137-0.039,0.273,0.03,0.315,0.161c0.042,0.132-0.03,0.272-0.161,0.315    c-0.726,0.233-1.459,0.504-2.178,0.802C53.005,53.859,52.973,53.865,52.94,53.865z"/></g></g><g><g><path style="fill:#472B29;" d="M52.94,57.563c-0.098,0-0.191-0.058-0.23-0.154c-0.054-0.128,0.007-0.273,0.135-0.326    c3.54-1.469,7.527-2.063,12.187-1.811c0.138,0.008,0.243,0.126,0.236,0.264c-0.008,0.133-0.118,0.236-0.25,0.236    c-0.004,0-0.009,0-0.014,0c-4.579-0.25-8.498,0.333-11.968,1.771C53.005,57.558,52.973,57.563,52.94,57.563z"/></g></g><g><g><path style="fill:#472B29;" d="M52.94,61.262c-0.109,0-0.209-0.071-0.24-0.182c-0.038-0.133,0.039-0.271,0.172-0.309    c3.781-1.08,7.271-1.466,12.036-1.339c0.138,0.004,0.247,0.119,0.243,0.257c-0.004,0.136-0.115,0.243-0.25,0.243    c-0.002,0-0.005,0-0.007,0c-4.714-0.126-8.156,0.255-11.886,1.319C52.986,61.259,52.963,61.262,52.94,61.262z"/></g></g><g><g><path style="fill:#472B29;" d="M40.353,40.853c-0.01,0-0.021-0.001-0.031-0.002c-1.559-0.192-3.163-0.249-4.76-0.159    c-0.154,0.009-0.256-0.099-0.263-0.236s0.098-0.256,0.236-0.264c1.629-0.086,3.261-0.034,4.849,0.163    c0.137,0.017,0.234,0.142,0.217,0.278C40.585,40.76,40.477,40.853,40.353,40.853z"/></g></g><g><g><path style="fill:#472B29;" d="M43.863,41.523c-0.021,0-0.042-0.003-0.063-0.008c-0.578-0.15-1.167-0.283-1.75-0.396    c-0.136-0.025-0.225-0.156-0.199-0.292c0.026-0.137,0.156-0.23,0.292-0.198c0.594,0.113,1.194,0.248,1.782,0.401    c0.134,0.035,0.214,0.172,0.179,0.306C44.076,41.449,43.975,41.523,43.863,41.523z"/></g></g><g><g><path style="fill:#472B29;" d="M47.567,42.771c-0.032,0-0.064-0.006-0.096-0.02c-0.723-0.299-1.457-0.569-2.183-0.803    c-0.131-0.043-0.204-0.184-0.161-0.314c0.042-0.132,0.185-0.2,0.314-0.162c0.739,0.238,1.486,0.514,2.221,0.818    c0.127,0.053,0.188,0.198,0.135,0.326C47.758,42.714,47.665,42.771,47.567,42.771z"/></g></g><g><g><path style="fill:#472B29;" d="M47.567,46.47c-0.032,0-0.064-0.006-0.096-0.02c-3.825-1.586-7.828-2.278-11.91-2.061    c-0.138,0.017-0.255-0.1-0.263-0.236c-0.007-0.138,0.098-0.256,0.236-0.264c4.156-0.222,8.234,0.484,12.128,2.1    c0.127,0.053,0.188,0.199,0.135,0.326C47.758,46.412,47.665,46.47,47.567,46.47z"/></g></g><g><g><path style="fill:#472B29;" d="M38.845,48.106c-0.006,0-0.011,0-0.017-0.001c-1.074-0.071-2.173-0.077-3.267-0.019    c-0.138-0.004-0.255-0.099-0.263-0.236s0.098-0.256,0.236-0.264c1.113-0.058,2.232-0.052,3.326,0.021    c0.138,0.009,0.242,0.128,0.233,0.266C39.085,48.005,38.975,48.106,38.845,48.106z"/></g></g><g><g><path style="fill:#472B29;" d="M47.567,50.168c-0.032,0-0.064-0.006-0.096-0.02c-1.973-0.819-4.011-1.406-6.057-1.744    c-0.136-0.023-0.228-0.151-0.206-0.288c0.022-0.136,0.148-0.226,0.288-0.206c2.083,0.346,4.158,0.943,6.166,1.777    c0.128,0.053,0.188,0.199,0.135,0.326C47.758,50.11,47.665,50.168,47.567,50.168z"/></g></g><g><g><path style="fill:#472B29;" d="M47.567,53.865c-0.032,0-0.064-0.006-0.096-0.02c-3.827-1.586-7.832-2.281-11.91-2.061    c-0.138,0.004-0.255-0.099-0.263-0.236s0.098-0.256,0.236-0.264c4.146-0.218,8.231,0.483,12.128,2.1    c0.127,0.053,0.188,0.198,0.135,0.326C47.758,53.808,47.665,53.865,47.567,53.865z"/></g></g><g><g><path style="fill:#472B29;" d="M43.308,56.268c-0.017,0-0.034-0.002-0.05-0.005c-2.368-0.482-4.904-0.644-7.754-0.49    c-0.126-0.003-0.255-0.099-0.263-0.236c-0.007-0.139,0.098-0.256,0.236-0.264c2.891-0.154,5.47,0.009,7.88,0.5    c0.135,0.027,0.223,0.16,0.195,0.295C43.528,56.186,43.424,56.268,43.308,56.268z"/></g></g><g><g><path style="fill:#472B29;" d="M47.567,57.563c-0.032,0-0.064-0.006-0.096-0.02c-0.664-0.275-1.356-0.523-2.059-0.736    c-0.132-0.04-0.207-0.18-0.167-0.312c0.041-0.133,0.179-0.202,0.312-0.167c0.718,0.218,1.426,0.472,2.105,0.754    c0.127,0.053,0.188,0.199,0.135,0.326C47.758,57.506,47.665,57.563,47.567,57.563z"/></g></g><g><g><path style="fill:#472B29;" d="M47.567,61.262c-0.022,0-0.046-0.003-0.069-0.01c-3.729-1.063-7.17-1.445-11.886-1.319    c-0.002,0-0.005,0-0.007,0c-0.135,0-0.246-0.107-0.25-0.243c-0.003-0.138,0.105-0.253,0.243-0.257    c4.764-0.128,8.255,0.259,12.037,1.339c0.133,0.038,0.21,0.176,0.172,0.309C47.776,61.19,47.676,61.262,47.567,61.262z"/></g></g><g><g><polygon style="fill:#EA5167;" points="50.5,26.525 26.7,33.563 26.7,28.769 50.5,21.729 74.3,28.769 74.3,33.563   "/></g><g><path style="fill:#472B29;" d="M50.5,22.46l23.1,6.831v3.335l-22.703-6.714L50.5,25.795l-0.397,0.117L27.4,32.626v-3.335    L50.5,22.46 M50.5,21L26,28.245V34.5l24.5-7.245L75,34.5v-6.255L50.5,21L50.5,21z"/></g></g><g><path style="fill:#472B29;" d="M50,65.5c-0.042,0-0.084-0.005-0.126-0.016c-5.231-1.359-11.236-2.025-17.871-1.984   c-0.001,0-0.002,0-0.003,0c-0.132,0-0.259-0.052-0.353-0.146C31.553,63.261,31.5,63.133,31.5,63V37h1v25.498c0.033,0,0.066,0,0.1,0   c6.217,0,11.896,0.625,16.9,1.859V40h1v25c0,0.154-0.071,0.301-0.194,0.396C50.218,65.464,50.109,65.5,50,65.5z"/></g><g><path style="fill:#472B29;" d="M50,65.5c-0.109,0-0.218-0.036-0.306-0.104C49.571,65.301,49.5,65.154,49.5,65V40h1v24.357   c5.032-1.24,10.763-1.894,17-1.859V37h1v26c0,0.133-0.053,0.261-0.147,0.354C68.259,63.448,68.132,63.5,68,63.5   c-0.185,0.003-0.4-0.002-0.601-0.002c-6.392,0-12.2,0.668-17.273,1.986C50.084,65.495,50.042,65.5,50,65.5z"/></g></svg>