<svg xmlns="http://www.w3.org/2000/svg" xmlns:xlink="http://www.w3.org/1999/xlink" viewBox="0 0 48 48" width="48px" height="48px"><defs><radialGradient id="DeA~neWTNgD5ARlwrjbvre" cx="24" cy="24" r="17.362" gradientUnits="userSpaceOnUse"><stop offset="0" stop-color="#f5f8fa"/><stop offset="1" stop-color="#e6ecf2"/></radialGradient><linearGradient id="DeA~neWTNgD5ARlwrjbvrf" x1="24" x2="24" y1="-.991" y2="53.403" gradientUnits="userSpaceOnUse"><stop offset="0" stop-color="#1e7ed8"/><stop offset=".365" stop-color="#2e9bed"/><stop offset=".573" stop-color="#38adfa"/><stop offset=".751" stop-color="#61c3fc"/><stop offset="1" stop-color="#a0e6ff"/></linearGradient><linearGradient id="DeA~neWTNgD5ARlwrjbvrg" x1="24" x2="24" y1="2.234" y2="51.071" gradientUnits="userSpaceOnUse"><stop offset="0" stop-color="#a0e6ff"/><stop offset=".09" stop-color="#83d6fe"/><stop offset=".21" stop-color="#62c4fc"/><stop offset=".327" stop-color="#4bb7fb"/><stop offset=".435" stop-color="#3db0fa"/><stop offset=".528" stop-color="#38adfa"/><stop offset=".822" stop-color="#268ce2"/><stop offset="1" stop-color="#1e7ed8"/></linearGradient><linearGradient id="DeA~neWTNgD5ARlwrjbvrh" x1="24.011" x2="24.011" y1="-9.553" y2="51.851" gradientUnits="userSpaceOnUse"><stop offset="0" stop-color="#1e7ed8"/><stop offset=".022" stop-color="#2388df"/><stop offset=".073" stop-color="#2d99eb"/><stop offset=".136" stop-color="#33a4f4"/><stop offset=".225" stop-color="#37abf9"/><stop offset=".472" stop-color="#38adfa"/><stop offset=".643" stop-color="#3aaefa"/><stop offset=".737" stop-color="#42b3fb"/><stop offset=".813" stop-color="#50bafb"/><stop offset=".88" stop-color="#64c5fc"/><stop offset=".939" stop-color="#7dd3fd"/><stop offset=".994" stop-color="#9ce4ff"/><stop offset="1" stop-color="#a0e6ff"/></linearGradient><linearGradient id="DeA~neWTNgD5ARlwrjbvri" x1="24" x2="24" y1="3.638" y2="65.043" gradientUnits="userSpaceOnUse"><stop offset="0" stop-color="#a0e6ff"/><stop offset=".061" stop-color="#8ddbfe"/><stop offset=".193" stop-color="#68c7fc"/><stop offset=".316" stop-color="#4eb9fb"/><stop offset=".426" stop-color="#3eb0fa"/><stop offset=".511" stop-color="#38adfa"/><stop offset=".816" stop-color="#268ce2"/><stop offset="1" stop-color="#1e7ed8"/></linearGradient><linearGradient id="DeA~neWTNgD5ARlwrjbvrj" x1="24.6" x2="24.6" y1=".766" y2="65.513" gradientUnits="userSpaceOnUse"><stop offset="0" stop-color="#1e7ed8"/><stop offset=".013" stop-color="#2082db"/><stop offset=".091" stop-color="#2b95e9"/><stop offset=".182" stop-color="#32a3f3"/><stop offset=".296" stop-color="#37abf8"/><stop offset=".507" stop-color="#38adfa"/><stop offset=".616" stop-color="#3baffa"/><stop offset=".71" stop-color="#46b5fb"/><stop offset=".799" stop-color="#58bffc"/><stop offset=".885" stop-color="#71ccfd"/><stop offset=".968" stop-color="#91defe"/><stop offset="1" stop-color="#a0e6ff"/></linearGradient><linearGradient id="DeA~neWTNgD5ARlwrjbvra" x1="23.4" x2="23.4" y1="77.745" y2="-16.887" gradientUnits="userSpaceOnUse"><stop offset="0" stop-color="#38adfa"/><stop offset=".188" stop-color="#3caffa"/><stop offset=".387" stop-color="#49b6fb"/><stop offset=".592" stop-color="#5ec2fc"/><stop offset=".799" stop-color="#7cd2fd"/><stop offset="1" stop-color="#a0e6ff"/></linearGradient><linearGradient id="DeA~neWTNgD5ARlwrjbvrk" x1="10.884" x2="10.714" y1="20.287" y2="24.628" xlink:href="#DeA~neWTNgD5ARlwrjbvra"/><linearGradient id="DeA~neWTNgD5ARlwrjbvrb" x1="10.739" x2="10.739" y1="25.691" y2="21.316" gradientUnits="userSpaceOnUse"><stop offset="0" stop-color="#1e7ed8"/><stop offset=".124" stop-color="#2183dc"/><stop offset=".269" stop-color="#2991e6"/><stop offset=".425" stop-color="#36a9f7"/><stop offset=".449" stop-color="#38adfa"/><stop offset=".57" stop-color="#3baffa"/><stop offset=".675" stop-color="#46b5fb"/><stop offset=".775" stop-color="#58bffc"/><stop offset=".871" stop-color="#71ccfd"/><stop offset=".964" stop-color="#91defe"/><stop offset="1" stop-color="#a0e6ff"/></linearGradient><linearGradient id="DeA~neWTNgD5ARlwrjbvrl" x1="19.285" x2="19.102" y1="20.06" y2="24.716" xlink:href="#DeA~neWTNgD5ARlwrjbvra"/><linearGradient id="DeA~neWTNgD5ARlwrjbvrm" x1="19.13" x2="19.13" y1="25.691" y2="21.316" xlink:href="#DeA~neWTNgD5ARlwrjbvrb"/><linearGradient id="DeA~neWTNgD5ARlwrjbvrn" x1="28.87" x2="28.87" y1="22.17" y2="25.067" xlink:href="#DeA~neWTNgD5ARlwrjbvra"/><linearGradient id="DeA~neWTNgD5ARlwrjbvro" x1="28.87" x2="28.87" y1="25.691" y2="21.316" xlink:href="#DeA~neWTNgD5ARlwrjbvrb"/><linearGradient id="DeA~neWTNgD5ARlwrjbvrp" x1="37.252" x2="37.252" y1="21.553" y2="25.087" xlink:href="#DeA~neWTNgD5ARlwrjbvra"/><linearGradient id="DeA~neWTNgD5ARlwrjbvrq" x1="37.252" x2="37.252" y1="25.691" y2="21.316" xlink:href="#DeA~neWTNgD5ARlwrjbvrb"/><linearGradient id="DeA~neWTNgD5ARlwrjbvrr" x1="12.835" x2="12.669" y1="11.504" y2="15.743" xlink:href="#DeA~neWTNgD5ARlwrjbvra"/><linearGradient id="DeA~neWTNgD5ARlwrjbvrc" x1="12.692" x2="12.692" y1="16.819" y2="12.444" gradientUnits="userSpaceOnUse"><stop offset="0" stop-color="#1e7ed8"/><stop offset=".108" stop-color="#2183dc"/><stop offset=".236" stop-color="#2991e6"/><stop offset=".372" stop-color="#36a9f7"/><stop offset=".393" stop-color="#38adfa"/><stop offset=".526" stop-color="#3baffa"/><stop offset=".642" stop-color="#46b5fb"/><stop offset=".752" stop-color="#58bffc"/><stop offset=".858" stop-color="#71ccfd"/><stop offset=".96" stop-color="#91defe"/><stop offset="1" stop-color="#a0e6ff"/></linearGradient><linearGradient id="DeA~neWTNgD5ARlwrjbvrs" x1="19.969" x2="19.793" y1="11.327" y2="15.82" xlink:href="#DeA~neWTNgD5ARlwrjbvra"/><linearGradient id="DeA~neWTNgD5ARlwrjbvrt" x1="19.819" x2="19.819" y1="16.819" y2="12.444" xlink:href="#DeA~neWTNgD5ARlwrjbvrc"/><linearGradient id="DeA~neWTNgD5ARlwrjbvru" x1="28.339" x2="28.105" y1="12.867" y2="16.059" xlink:href="#DeA~neWTNgD5ARlwrjbvra"/><linearGradient id="DeA~neWTNgD5ARlwrjbvrv" x1="28.172" x2="28.172" y1="16.819" y2="12.444" xlink:href="#DeA~neWTNgD5ARlwrjbvrc"/><linearGradient id="DeA~neWTNgD5ARlwrjbvrw" x1="35.256" x2="35.32" y1="12.792" y2="16.324" xlink:href="#DeA~neWTNgD5ARlwrjbvra"/><linearGradient id="DeA~neWTNgD5ARlwrjbvrx" x1="35.299" x2="35.299" y1="16.819" y2="12.444" xlink:href="#DeA~neWTNgD5ARlwrjbvrc"/><linearGradient id="DeA~neWTNgD5ARlwrjbvry" x1="12.832" x2="12.669" y1="29.278" y2="33.423" xlink:href="#DeA~neWTNgD5ARlwrjbvra"/><linearGradient id="DeA~neWTNgD5ARlwrjbvrd" x1="12.686" x2="12.707" y1="34.532" y2="28.442" gradientUnits="userSpaceOnUse"><stop offset="0" stop-color="#1e7ed8"/><stop offset=".094" stop-color="#2183dc"/><stop offset=".206" stop-color="#2991e6"/><stop offset=".325" stop-color="#36a9f7"/><stop offset=".343" stop-color="#38adfa"/><stop offset=".487" stop-color="#3baffa"/><stop offset=".613" stop-color="#46b5fb"/><stop offset=".732" stop-color="#58bffc"/><stop offset=".846" stop-color="#71ccfd"/><stop offset=".957" stop-color="#91defe"/><stop offset="1" stop-color="#a0e6ff"/></linearGradient><linearGradient id="DeA~neWTNgD5ARlwrjbvrz" x1="19.969" x2="19.793" y1="29.018" y2="33.511" xlink:href="#DeA~neWTNgD5ARlwrjbvra"/><linearGradient id="DeA~neWTNgD5ARlwrjbvrA" x1="19.813" x2="19.835" y1="34.542" y2="28.4" xlink:href="#DeA~neWTNgD5ARlwrjbvrd"/><linearGradient id="DeA~neWTNgD5ARlwrjbvrB" x1="28.345" x2="28.103" y1="30.468" y2="33.771" xlink:href="#DeA~neWTNgD5ARlwrjbvra"/><linearGradient id="DeA~neWTNgD5ARlwrjbvrC" x1="28.172" x2="28.172" y1="34.084" y2="27.446" xlink:href="#DeA~neWTNgD5ARlwrjbvrd"/><linearGradient id="DeA~neWTNgD5ARlwrjbvrD" x1="35.257" x2="35.32" y1="30.509" y2="34.003" xlink:href="#DeA~neWTNgD5ARlwrjbvra"/><linearGradient id="DeA~neWTNgD5ARlwrjbvrE" x1="35.299" x2="35.299" y1="34.031" y2="23.386" xlink:href="#DeA~neWTNgD5ARlwrjbvrd"/></defs><g data-name="Globe with meridians"><circle cx="24" cy="24" r="17.362" fill="url(#DeA~neWTNgD5ARlwrjbvre)"/><path fill="url(#DeA~neWTNgD5ARlwrjbvrf)" d="M29.68,8.13a16.99,16.99,0,0,0-11.36,0,16.859,16.859,0,0,0,0,31.74,16.99,16.99,0,0,0,11.36,0,16.859,16.859,0,0,0,0-31.74Zm1.49,29.86a14.38,14.38,0,0,1-2.18.92,15.593,15.593,0,0,1-9.98,0,14.38,14.38,0,0,1-2.18-.92,15.716,15.716,0,0,1-.01-27.98,15.112,15.112,0,0,1,2.19-.92,15.593,15.593,0,0,1,9.98,0,14.38,14.38,0,0,1,2.18.92,15.712,15.712,0,0,1,0,27.98Z"/><path fill="url(#DeA~neWTNgD5ARlwrjbvrg)" d="M24,41.982A17.982,17.982,0,1,1,41.982,24,18,18,0,0,1,24,41.982ZM24,7.217A16.783,16.783,0,1,0,40.783,24,16.8,16.8,0,0,0,24,7.217Z"/><path fill="url(#DeA~neWTNgD5ARlwrjbvrh)" d="M30.01,10.01a8.574,8.574,0,0,0-3.12-2.544l.481,1.173q.233.212.459.451c2.83,3.04,4.73,8.59,4.73,14.91s-1.9,11.87-4.73,14.91q-.227.24-.459.451l-.481,1.173a11.6,11.6,0,0,0,3.12-2.544A25.527,25.527,0,0,0,33.76,24C33.76,18.42,32.346,13.386,30.01,10.01Zm-8.9-2.544A10.246,10.246,0,0,0,18,10.01c-2.369,3.355-3.74,8.42-3.74,13.99s1.376,10.641,3.75,13.99a10.825,10.825,0,0,0,3.1,2.544l-.453-1.166c-.157-.143-.313-.3-.466-.458-2.83-3.04-4.73-8.59-4.73-14.91s1.9-11.87,4.73-14.91c.153-.163.309-.315.467-.458Z"/><path fill="url(#DeA~neWTNgD5ARlwrjbvri)" d="M31.17,10.01a7.926,7.926,0,0,0-4.28-2.544,8.729,8.729,0,0,1,2.1,1.624c2.83,3.04,4.73,8.59,4.73,14.91s-1.9,11.87-4.73,14.91a8.729,8.729,0,0,1-2.1,1.624,9.8,9.8,0,0,0,4.28-2.544A25.535,25.535,0,0,0,34.92,24C34.92,18.42,33.506,13.386,31.17,10.01ZM21.11,7.466a9.127,9.127,0,0,0-4.29,2.544c-2.369,3.355-3.74,8.42-3.74,13.99s1.376,10.641,3.75,13.99a8.983,8.983,0,0,0,4.28,2.544,8.729,8.729,0,0,1-2.1-1.624c-2.83-3.04-4.73-8.59-4.73-14.91s1.9-11.87,4.73-14.91A8.729,8.729,0,0,1,21.11,7.466Z"/><polygon fill="url(#DeA~neWTNgD5ARlwrjbvrj)" points="25.2 8.32 25.2 39.68 24 40.78 24 7.22 25.2 8.32"/><polygon fill="url(#DeA~neWTNgD5ARlwrjbvra)" points="24 7.22 24 40.78 22.8 39.68 22.8 8.32 24 7.22"/><polygon fill="url(#DeA~neWTNgD5ARlwrjbvrk)" points="13.101 22.8 14.261 24 7.217 24 8.315 22.8 13.101 22.8"/><polygon fill="url(#DeA~neWTNgD5ARlwrjbvrb)" points="14.261 24 13.101 25.2 8.315 25.2 7.217 24 14.261 24"/><polygon fill="url(#DeA~neWTNgD5ARlwrjbvrl)" points="22.8 22.8 24 24 14.261 24 15.484 22.8 22.8 22.8"/><polygon fill="url(#DeA~neWTNgD5ARlwrjbvrm)" points="24 24 22.8 25.2 15.484 25.2 14.261 24 24 24"/><polygon fill="url(#DeA~neWTNgD5ARlwrjbvrn)" points="32.539 22.8 33.739 24 24 24 25.223 22.8 32.539 22.8"/><polygon fill="url(#DeA~neWTNgD5ARlwrjbvro)" points="33.739 24 32.539 25.2 25.223 25.2 24 24 33.739 24"/><polygon fill="url(#DeA~neWTNgD5ARlwrjbvrp)" points="39.685 22.8 40.783 24 33.72 24 34.898 22.8 39.685 22.8"/><polygon fill="url(#DeA~neWTNgD5ARlwrjbvrq)" points="40.783 24 39.685 25.2 34.897 25.2 33.72 24 40.783 24"/><polygon fill="url(#DeA~neWTNgD5ARlwrjbvrr)" points="14.775 13.949 15.638 15.149 9.746 15.149 11.911 13.949 14.775 13.949"/><polygon fill="url(#DeA~neWTNgD5ARlwrjbvrc)" points="15.638 15.149 14.015 16.349 10.284 16.349 9.746 15.149 15.638 15.149"/><polygon fill="url(#DeA~neWTNgD5ARlwrjbvrs)" points="22.8 13.949 24 15.149 15.638 15.149 17.256 13.949 22.8 13.949"/><polygon fill="url(#DeA~neWTNgD5ARlwrjbvrt)" points="24 15.149 22.8 16.349 16.465 16.349 15.638 15.149 24 15.149"/><polygon fill="url(#DeA~neWTNgD5ARlwrjbvru)" points="30.765 13.949 32.343 15.149 24 15.149 25.2 13.949 30.765 13.949"/><polygon fill="url(#DeA~neWTNgD5ARlwrjbvrv)" points="32.343 15.149 31.566 16.349 25.2 16.349 24 15.149 32.343 15.149"/><polygon fill="url(#DeA~neWTNgD5ARlwrjbvrw)" points="36.09 13.949 38.254 15.149 32.343 15.149 33.2 13.949 36.09 13.949"/><polygon fill="url(#DeA~neWTNgD5ARlwrjbvrx)" points="38.254 15.149 37.741 16.349 33.966 16.349 32.343 15.149 38.254 15.149"/><polygon fill="url(#DeA~neWTNgD5ARlwrjbvry)" points="13.992 31.64 15.638 32.84 9.746 32.84 10.253 31.64 13.992 31.64"/><polygon fill="url(#DeA~neWTNgD5ARlwrjbvrd)" points="15.638 32.84 14.794 34.04 11.9 34.04 9.746 32.84 15.638 32.84"/><polygon fill="url(#DeA~neWTNgD5ARlwrjbvrz)" points="22.8 31.64 24 32.84 15.638 32.84 16.443 31.64 22.8 31.64"/><polygon fill="url(#DeA~neWTNgD5ARlwrjbvrA)" points="24 32.84 22.8 34.04 17.252 34.04 15.638 32.84 24 32.84"/><polygon fill="url(#DeA~neWTNgD5ARlwrjbvrB)" points="31.569 31.64 32.343 32.84 24 32.84 25.2 31.64 31.569 31.64"/><polygon fill="url(#DeA~neWTNgD5ARlwrjbvrC)" points="32.343 32.84 30.77 34.04 25.2 34.04 24 32.84 32.343 32.84"/><polygon fill="url(#DeA~neWTNgD5ARlwrjbvrD)" points="37.747 31.64 38.254 32.84 32.343 32.84 33.952 31.64 37.747 31.64"/><polygon fill="url(#DeA~neWTNgD5ARlwrjbvrE)" points="38.254 32.84 36.1 34.04 33.192 34.04 32.343 32.84 38.254 32.84"/></g></svg>